# xmcd CD database file
#
# Track frame offsets:
#	150
#	24950
#	40438
#	60090
#	79868
#	104325
#	124998
#	142005
#	159375
#
# Disc length: 2373 seconds
#
# Revision: 3
# Processed by: cddbd v1.4PL0 Copyright (c) Steve Scherf et al.
# Submitted via: Gronk 1.4
#
DISCID=6f094309
DTITLE=Brahim Izri - Izri, Brahim
DYEAR=1900
DGENRE=blues
TTITLE0=L´boudala
TTITLE1=Amentiyi
TTITLE2=Chtedouyi
TTITLE3=Anelhou
TTITLE4=Sani Sani
TTITLE5=Yidhem Yidhem
TTITLE6=Dachaka Yeugha
TTITLE7=Ithegmats
TTITLE8=Nadhid El Haq
EXTD=
EXTT0=
EXTT1=
EXTT2=
EXTT3=
EXTT4=
EXTT5=
EXTT6=
EXTT7=
EXTT8=
PLAYORDER=
